<svg xmlns="http://www.w3.org/2000/svg" xmlns:xlink="http://www.w3.org/1999/xlink" style="display:none">
  <symbol id="logo" viewBox="0 0 132 51">
    <style>
      :where(path, polygon, rect, circle, ellipse, line, polyline){fill:currentColor!important}
    </style>
  <path d="M119.044 40.692L119.841 42.5532H131.03L130.3 40.7709L119.044 40.692Z" fill="#F6921E"/>
<path d="M131.081 15.2569L130.272 14.4778L128.071 14.4727L130.169 16.5223L131.081 15.2569Z" fill="#F6921E"/>
<path d="M70.2257 19.0633C72.882 19.1397 75.2771 18.4777 77.5902 17.2632C77.6798 17.5458 77.7618 17.7699 77.8207 17.999C78.0999 19.1066 78.2972 19.9748 78.5405 21.0899C78.6891 21.7672 78.9376 22.3859 79.3141 22.9613C80.2209 24.3387 80.7973 25.8332 81.1764 27.4474C82.3932 32.6083 84.9394 42.6805 84.9803 42.8765C84.0684 43.564 84.0326 43.9128 84.842 44.7835C82.2779 46.166 79.578 46.8305 76.7141 46.8153C76.9037 46.413 76.9421 46.0235 76.7782 45.7332C76.5015 45.2418 75.6793 45.1654 75.6383 45.2036C75.5461 44.8701 72.8538 34.1716 71.5193 28.8427C71.2913 27.9337 71.1504 27.0324 71.2503 26.1031C71.4194 24.5398 71.2426 23.0224 70.7815 21.5177C70.5202 20.6698 70.4536 20.0282 70.2231 19.0633H70.2257Z" fill="#F6921E"/>
<path d="M69.6493 0.502549C70.1847 0.647674 70.5074 1.05504 70.8199 1.47005C71.8343 2.8271 72.6182 4.31908 73.3533 5.83653C74.8109 8.85361 76.0276 11.5957 76.9498 14.8165C77.0446 15.15 77.124 15.4912 77.2213 15.8705C74.9723 17.1003 72.654 17.7546 70.0745 17.6222C69.9926 17.3625 69.9055 17.141 69.8568 16.9093C68.9397 12.5581 68.4812 8.53026 68.6272 4.0823C68.6554 3.21664 68.7886 2.35098 68.9346 1.49806C69.0063 1.08814 69.1114 0.624757 69.6519 0.5L69.6493 0.502549Z" fill="#F6921E"/>
<path d="M85.7104 45.9802C85.9076 46.7363 86.0767 47.383 86.2714 48.1316C83.3896 49.8782 80.3285 50.7693 76.8755 50.4281C76.6988 49.7331 76.5297 49.0583 76.3299 48.2665C78.0077 48.2843 79.601 48.1367 81.161 47.7573C82.7236 47.3754 84.2068 46.7694 85.7104 45.9827V45.9802Z" fill="#F6921E"/>
<path d="M16.307 10.9286H5.97105V12.7796H16.3045V10.9286H16.307Z" fill="#F6921E"/>
<path d="M65.392 42.6016V44.6639H74.0066C73.8375 43.9764 73.6684 43.289 73.4994 42.6016H65.392Z" fill="#F6921E"/>
<path d="M121.465 24.4864L122.177 23.2566L124.009 25.0414L129.711 17.1385L126.97 14.4727H124.721L128.174 17.8132L126.983 17.8208L123.555 14.4804H121.46L124.856 17.8132H123.704L120.305 14.4727H118.558L116.572 17.7953L114.433 15.7127L110.724 22.0829L109.059 22.0625L109.013 12.4385L98.7386 12.385L98.6285 22.0727C98.6285 22.0727 97.5193 22.088 97.007 22.0778C97.007 22.0727 97.0121 22.0676 97.0121 22.0651L91.2639 12.4003L78.2716 12.3366L80.0545 15.0202H81.4966L88.8509 25.7187L88.4257 26.6327H85.2186V28.5066L87.5932 28.5015L84.5398 34.7572C84.5398 34.7572 85.8257 39.7805 86.0255 40.5825H92.9392L96.4358 32.896L99.2714 32.8833L100.785 34.3574V42.5837L109.208 42.5634L107.955 41.3463L109.987 41.3336V39.4343L105.98 39.4215L105.186 38.645L109.008 38.617V32.3537H113.967L116.764 38.6068H128.002L121.46 24.4889L121.465 24.4864ZM109.013 31.2894V30.2939H113.053L113.498 31.2894H109.013Z" fill="#F6921E"/>
<path d="M68.5043 33.5401C68.5043 28.224 63.4042 27.1165 63.4042 27.1165L63.3069 27.0884C63.9114 26.9 68.1482 25.4081 67.9587 20.4254C67.7999 16.2346 64.2879 13.3907 59.2852 13.2685V13.2557H45.3604C41.5001 13.2532 39.7992 13.2532 39.7992 13.2532V15.9418L41.3311 17.4313L41.3234 24.3947H32.5064L31.3793 23.2948C31.3793 23.2948 31.4254 16.3263 31.3614 12.7771H19.8343C20.3748 13.3627 21.0101 13.8286 21.5403 14.4626H5.907C5.9403 18.0449 5.97104 22.2611 5.97104 22.2153C5.97104 26.4621 5.4869 29.632 5.4869 29.632L4.00375 28.2571C4.00375 28.2571 3.97301 29.8815 3.49912 31.9794L0 32.01V46.5148H9.98247L9.97735 41.1427H17.1728L18.9813 42.6092L27.0964 42.599V47.4212L27.8034 48.1036H29.8859L28.1748 46.4359L29.3403 46.4283L31.0719 48.101H33.1545L31.4434 46.4334L32.6089 46.4257L34.3405 48.0985H36.4231L34.7119 46.4308L35.8775 46.4232L37.6091 48.0959V42.6958H43.1421L43.119 44.1521H52.8018L51.2982 42.5965C51.2982 42.5965 58.8395 42.5965 60.3226 42.5965C62.8611 42.5965 64.5492 41.9014 65.7455 41.2038C65.246 40.7098 64.4647 39.9842 64.4647 39.9842C64.4647 39.9842 68.512 38.729 68.512 33.5351L68.5043 33.5401ZM23.2899 33.5707V35.0321L20.59 35.0372L18.7994 33.586H14.8469C16.0713 26.2559 15.869 23.3967 15.869 23.3967L23.2873 23.389V33.5732L23.2899 33.5707ZM37.604 41.3794V33.479C37.604 33.479 35.0911 33.502 33.8333 33.4714C33.7616 33.4714 33.6899 33.4612 33.6284 33.4561C33.613 31.1163 33.6694 28.7994 33.6284 26.4621H41.308L41.3285 32.9927L43.0986 34.719C43.0986 34.719 43.1062 39.2382 43.1319 41.3794H37.5988H37.604ZM49.7971 23.9619V20.8073C51.3596 20.8073 54.0903 20.7539 55.8757 20.8073C56.844 20.8379 57.5023 21.701 57.5023 22.4215C57.5023 23.0351 57.0002 23.8779 56.1139 23.9008C53.3782 23.9721 50.0302 23.9568 49.7971 23.9619ZM51.3161 34.9252V31.8139H56.0934C56.0934 31.8139 55.3019 31.0501 54.8946 30.6453C55.3557 30.3932 56.7902 30.2175 57.5279 30.9839C58.5935 32.0889 57.4741 33.1608 57.4741 33.1608L59.2852 34.9252H51.3161Z" fill="#F6921E"/>
<path d="M68.5043 33.5401C68.5043 28.224 63.4042 27.1165 63.4042 27.1165L63.3069 27.0884C63.9114 26.9 68.1482 25.4081 67.9587 20.4254C67.7999 16.2346 64.2879 13.3907 59.2852 13.2685V13.2557H45.3604C41.5001 13.2532 39.7992 13.2532 39.7992 13.2532V15.9418L41.3311 17.4313L41.3234 24.3947H32.5064L31.3793 23.2948C31.3793 23.2948 31.4254 16.3263 31.3614 12.7771H19.8343C20.3748 13.3627 21.0101 13.8286 21.5403 14.4626H5.907C5.9403 18.0449 5.97104 22.2611 5.97104 22.2153C5.97104 26.4621 5.4869 29.632 5.4869 29.632L4.00375 28.2571C4.00375 28.2571 3.97301 29.8815 3.49912 31.9794L0 32.01V46.5148H9.98247L9.97735 41.1427H17.1728L18.9813 42.6092L27.0964 42.599V47.4212L27.8034 48.1036H29.8859L28.1748 46.4359L29.3403 46.4283L31.0719 48.101H33.1545L31.4434 46.4334L32.6089 46.4257L34.3405 48.0985H36.4231L34.7119 46.4308L35.8775 46.4232L37.6091 48.0959V42.6958H43.1421L43.119 44.1521H52.8018L51.2982 42.5965C51.2982 42.5965 58.8395 42.5965 60.3226 42.5965C62.8611 42.5965 64.5492 41.9014 65.7455 41.2038C65.246 40.7098 64.4647 39.9842 64.4647 39.9842C64.4647 39.9842 68.512 38.729 68.512 33.5351L68.5043 33.5401ZM23.2899 33.5707V35.0321L20.59 35.0372L18.7994 33.586H14.8469C16.0713 26.2559 15.869 23.3967 15.869 23.3967L23.2873 23.389V33.5732L23.2899 33.5707ZM37.604 41.3794V33.479C37.604 33.479 35.0911 33.502 33.8333 33.4714C33.7616 33.4714 33.6899 33.4612 33.6284 33.4561C33.613 31.1163 33.6694 28.7994 33.6284 26.4621H41.308L41.3285 32.9927L43.0986 34.719C43.0986 34.719 43.1062 39.2382 43.1319 41.3794H37.5988H37.604ZM49.7971 23.9619V20.8073C51.3596 20.8073 54.0903 20.7539 55.8757 20.8073C56.844 20.8379 57.5023 21.701 57.5023 22.4215C57.5023 23.0351 57.0002 23.8779 56.1139 23.9008C53.3782 23.9721 50.0302 23.9568 49.7971 23.9619ZM51.3161 34.9252V31.8139H56.0934C56.0934 31.8139 55.3019 31.0501 54.8946 30.6453C55.3557 30.3932 56.7902 30.2175 57.5279 30.9839C58.5935 32.0889 57.4741 33.1608 57.4741 33.1608L59.2852 34.9252H51.3161Z" fill="#F6921E"/>
  </symbol>
</svg>
