<svg xmlns="http://www.w3.org/2000/svg" style="display:none">
  <symbol id="icon-instagram" viewBox="0 0 24 24">
<path d="M7.8 2H16.2C19.4 2 22 4.6 22 7.8V16.2C22 17.7383 21.3889 19.2135 20.3012 20.3012C19.2135 21.3889 17.7383 22 16.2 22H7.8C4.6 22 2 19.4 2 16.2V7.8C2 6.26174 2.61107 4.78649 3.69878 3.69878C4.78649 2.61107 6.26174 2 7.8 2ZM7.6 4C6.64522 4 5.72955 4.37928 5.05442 5.05442C4.37928 5.72955 4 6.64522 4 7.6V16.4C4 18.39 5.61 20 7.6 20H16.4C17.3548 20 18.2705 19.6207 18.9456 18.9456C19.6207 18.2705 20 17.3548 20 16.4V7.6C20 5.61 18.39 4 16.4 4H7.6ZM17.25 5.5C17.5815 5.5 17.8995 5.6317 18.1339 5.86612C18.3683 6.10054 18.5 6.41848 18.5 6.75C18.5 7.08152 18.3683 7.39946 18.1339 7.63388C17.8995 7.8683 17.5815 8 17.25 8C16.9185 8 16.6005 7.8683 16.3661 7.63388C16.1317 7.39946 16 7.08152 16 6.75C16 6.41848 16.1317 6.10054 16.3661 5.86612C16.6005 5.6317 16.9185 5.5 17.25 5.5ZM12 7C13.3261 7 14.5979 7.52678 15.5355 8.46447C16.4732 9.40215 17 10.6739 17 12C17 13.3261 16.4732 14.5979 15.5355 15.5355C14.5979 16.4732 13.3261 17 12 17C10.6739 17 9.40215 16.4732 8.46447 15.5355C7.52678 14.5979 7 13.3261 7 12C7 10.6739 7.52678 9.40215 8.46447 8.46447C9.40215 7.52678 10.6739 7 12 7ZM12 9C11.2044 9 10.4413 9.31607 9.87868 9.87868C9.31607 10.4413 9 11.2044 9 12C9 12.7956 9.31607 13.5587 9.87868 14.1213C10.4413 14.6839 11.2044 15 12 15C12.7956 15 13.5587 14.6839 14.1213 14.1213C14.6839 13.5587 15 12.7956 15 12C15 11.2044 14.6839 10.4413 14.1213 9.87868C13.5587 9.31607 12.7956 9 12 9Z" fill="white"/>


  </symbol>

  <symbol id="icon-facebook" viewBox="0 0 24 24">
<path d="M14 13.5H16.5L17.5 9.5H14V7.5C14 6.47 14 5.5 16 5.5H17.5V2.14C17.174 2.097 15.943 2 14.643 2C11.928 2 10 3.657 10 6.7V9.5H7V13.5H10V22H14V13.5Z" fill="white"/>


  </symbol>

  <symbol id="icon-twitter" viewBox="0 0 24 24">
<path d="M1 2H3.5L18.5 22H16L1 2ZM5.5 2H8L23 22H20.5L5.5 2Z" fill="white"/>
<path d="M3 2H8V4H3V2ZM16 22H21V20H16V22Z" fill="white"/>
<path d="M18.5 2H22L5 22H1.5L18.5 2Z" fill="white"/>


  </symbol>

  <symbol id="icon-youtube" viewBox="0 0 24 24">
<path fill-rule="evenodd" clip-rule="evenodd" d="M12 4C12.855 4 13.732 4.022 14.582 4.058L15.586 4.106L16.547 4.163L17.447 4.224L18.269 4.288C19.1612 4.35589 20.0008 4.73643 20.64 5.3626C21.2791 5.98877 21.6768 6.8204 21.763 7.711L21.803 8.136L21.878 9.046C21.948 9.989 22 11.017 22 12C22 12.983 21.948 14.011 21.878 14.954L21.803 15.864L21.763 16.289C21.6768 17.1798 21.2789 18.0115 20.6396 18.6377C20.0002 19.2639 19.1604 19.6443 18.268 19.712L17.448 19.775L16.548 19.837L15.586 19.894L14.582 19.942C13.7218 19.9793 12.861 19.9986 12 20C11.139 19.9986 10.2782 19.9793 9.418 19.942L8.414 19.894L7.453 19.837L6.553 19.775L5.731 19.712C4.83881 19.6441 3.9992 19.2636 3.36004 18.6374C2.72089 18.0112 2.32319 17.1796 2.237 16.289L2.197 15.864L2.122 14.954C2.04583 13.9711 2.00514 12.9858 2 12C2 11.017 2.052 9.989 2.122 9.046L2.197 8.136L2.237 7.711C2.32316 6.82055 2.72071 5.98905 3.35966 5.36291C3.99861 4.73676 4.83799 4.35612 5.73 4.288L6.551 4.224L7.451 4.163L8.413 4.106L9.417 4.058C10.2775 4.02073 11.1387 4.00139 12 4ZM10 9.575V14.425C10 14.887 10.5 15.175 10.9 14.945L15.1 12.52C15.1914 12.4674 15.2673 12.3916 15.3201 12.3003C15.3729 12.209 15.4007 12.1055 15.4007 12C15.4007 11.8945 15.3729 11.791 15.3201 11.6997C15.2673 11.6084 15.1914 11.5326 15.1 11.48L10.9 9.056C10.8088 9.00332 10.7053 8.9756 10.5999 8.97562C10.4945 8.97563 10.3911 9.00339 10.2998 9.0561C10.2086 9.1088 10.1329 9.1846 10.0802 9.27587C10.0276 9.36713 9.99993 9.47065 10 9.576V9.575Z" fill="white"/>


  </symbol>

  <symbol id="icon-telegram" viewBox="0 0 24 24">
<path d="M16.44 5.82C15.7566 5.03953 15.3799 4.0374 15.38 3H12.29V15.4C12.2667 16.0712 11.9835 16.7071 11.5003 17.1735C11.0171 17.6399 10.3716 17.9004 9.7 17.9C8.28 17.9 7.1 16.74 7.1 15.3C7.1 13.58 8.76 12.29 10.47 12.82V9.66C7.02 9.2 4 11.88 4 15.3C4 18.63 6.76 21 9.69 21C12.83 21 15.38 18.45 15.38 15.3V9.01C16.633 9.90985 18.1374 10.3926 19.68 10.39V7.3C19.68 7.3 17.8 7.39 16.44 5.82Z" fill="white"/>


  </symbol>
</svg>



